<!-- Generated by IcoMoon.io -->
<svg version="1.1" xmlns="http://www.w3.org/2000/svg" width="29" height="32" viewBox="0 0 29 32">
<title>Vector1</title>
<path d="M0 18.48c0.010 3.296 1.488 6.453 4.109 8.784 2.621 2.33 6.174 3.643 9.882 3.653 3.707-0.010 7.259-1.323 9.882-3.653 2.621-2.33 4.099-5.486 4.109-8.781v-18.173s-27.981 2.773-27.981 18.17zM13.99 21.734c-0.725 0-1.432-0.19-2.035-0.547-0.586-0.345-1.049-0.844-1.34-1.442l-0.009-0.020c-0.176-0.364-0.278-0.792-0.278-1.244 0-0.226 0.026-0.445 0.074-0.656l-0.004 0.020c0.141-0.632 0.49-1.213 1.002-1.669 0.512-0.454 1.165-0.765 1.875-0.89 0.215-0.040 0.463-0.063 0.716-0.063 0.503 0 0.984 0.091 1.429 0.256l-0.028-0.009c0.67 0.246 1.243 0.664 1.645 1.2 0.403 0.536 0.618 1.165 0.618 1.808 0.002 0.429-0.091 0.854-0.275 1.251-0.198 0.416-0.465 0.768-0.79 1.056l-0.003 0.003c-0.339 0.304-0.744 0.544-1.19 0.709-0.417 0.158-0.899 0.25-1.402 0.25-0.001 0-0.002 0-0.003 0h0v-0.013z"></path>
</svg>
